<svg xmlns="http://www.w3.org/2000/svg" width="32" height="32" viewBox="0 0 32 32" m_init="2261455202504171300"><path d="M30 4C28.896 4 28 4.896 28 6C28 7.104 28.896 8 30 8C31.104 8 32 7.104 32 6C32 4.896 31.104 4 30 4ZM23.91 5.01599L13.757 0.285004C13.258 0.0530037 12.66 0.269005 12.428 0.768005C12.195 1.26901 12.411 1.86398 12.911 2.09698L22.746 6.67999L23.085 7.01999L19.082 11.022C18.618 10.18 18.018 9.39499 17.344 8.82999L9.345 2.12C8.556 1.46 7.31902 1.459 6.52802 2.121L6.17401 2.41901L4.48599 0H1C0.447 0 0 0.447 0 1C0 1.553 0.447 2 1 2H3.44299L10.862 12.636C11.709 13.848 12.534 16.121 12.664 17.598L13.758 30.091C13.851 31.161 14.766 32 15.841 32H20V18.997C26.609 18.951 28.932 18.305 28.977 11.506C28.983 10.687 28.564 9.669 27.981 9.086L23.91 5.01599ZM18 30H15.841C15.808 30 15.753 29.95 15.75 29.917L14.656 17.424C14.496 15.597 13.55 12.99 12.502 11.49L7.32101 4.06299L7.811 3.65201C7.864 3.60901 8.00799 3.60901 8.05899 3.65201L16.058 10.36C17.092 11.228 17.999 12.961 17.999 14.068V30H18ZM20 16.998C20 16.998 20.001 14.021 20 14H26.848C26.476 16.725 25.066 16.977 20 16.998ZM26.968 12H20.933L24.5 8.43399L26.566 10.5C26.767 10.701 26.978 11.211 26.976 11.492C26.976 11.672 26.971 11.832 26.968 12Z" fill="#a5a1b2"/></svg>