<svg xmlns="http://www.w3.org/2000/svg" width="32" height="32" viewBox="0 0 32 32" m_init="2261455202504171300"><path d="M23.75 7.01001C20.298 3.55801 17.276 2.83301 15.35 2.83301C15.216 2.83301 15.09 2.83699 14.971 2.84399C14.322 2.87899 13.812 3.222 13.608 3.759C13.397 4.313 13.56 4.93099 14.045 5.41199L17.334 8.68201L16.063 9.953C16.042 9.97 16.017 9.976 15.998 9.996L13.401 12.595L13.325 12.788C13.297 12.86 13.261 12.963 13.217 13.092C12.934 13.922 12.27 15.865 10.447 17.077C9.98702 17.384 9.86203 18.004 10.168 18.464C10.361 18.754 10.679 18.91 11.002 18.91C11.192 18.91 11.385 18.856 11.555 18.743C13.943 17.154 14.79 14.673 15.11 13.738C15.115 13.725 15.119 13.714 15.123 13.702L16.407 12.417L18.917 14.925L8.44397 25.396C8.05297 25.787 8.05297 26.419 8.44397 26.81C8.63897 27.005 8.895 27.103 9.151 27.103C9.407 27.103 9.66297 27.005 9.85797 26.81L20.292 16.378C21.981 18.512 22.02 21.158 21.981 21.952L21.928 23.057L23.032 22.998C28.572 22.703 31.192 18.148 31.803 15.78L31.947 15.228L23.75 7.01001ZM23.969 20.878C23.871 19.252 23.377 16.766 21.481 14.664L17.831 11.014L20.166 8.67599L16.395 4.92899C17.809 5.17699 19.914 6.001 22.335 8.423L29.691 15.801C29.213 17.055 27.664 20.189 23.969 20.878ZM14.135 26.123C13.605 25.954 13.046 26.25 12.88 26.774C12.192 28.944 9.92502 30 5.94702 30C5.45302 30 5.20999 29.898 5.16699 29.831C4.82599 29.291 5.91902 26.983 6.50702 25.744C7.26902 24.136 7.981 22.616 7.992 21.421C8.006 19.92 7.999 15.607 7.995 12.851L8 10.529C7.995 3.43299 8.74701 2.18801 9.01801 2.00201C9.52201 2.21501 9.84198 4.81301 10.014 6.20801C10.187 7.60601 10.366 9.05301 10.711 10.342C10.855 10.876 11.403 11.193 11.936 11.049C12.47 10.906 12.787 10.358 12.643 9.82401C12.333 8.66901 12.164 7.29301 11.999 5.96301C11.62 2.89601 11.263 0 9 0C6.818 0 6.40803 3.357 6.25403 4.621C5.99703 6.724 5.999 9.106 6 10.53L6.00299 12.853C6.00699 15.602 6.014 19.905 6 21.402C5.993 22.157 5.30597 23.607 4.69897 24.887C3.59297 27.223 2.54699 29.43 3.47699 30.9C3.93799 31.629 4.76902 32 5.94702 32C10.841 32 13.814 30.445 14.786 27.378C14.953 26.852 14.661 26.29 14.135 26.123ZM4 17V1C4 0.447 3.553 0 3 0C2.447 0 2 0.447 2 1V17C2 17.553 2.447 18 3 18C3.553 18 4 17.553 4 17ZM18 21C17.447 21 17 21.447 17 22V31C17 31.553 17.447 32 18 32C18.553 32 19 31.553 19 31V22C19 21.447 18.553 21 18 21Z" fill="#a5a1b2"/></svg>