<svg xmlns="http://www.w3.org/2000/svg" width="20" height="20" viewBox="0 0 20 20" m_init="2261455202504171300"><path d="M11.7042 15.2679C11.1652 15.4239 10.6062 15.4999 9.99624 15.4999C7.5493 15.4999 5.51839 14.199 2.23947 10.5301C1.91648 10.1691 1.91646 9.83106 2.24045 9.46807C2.74744 8.90008 3.22643 8.38705 3.68542 7.92306C4.07441 7.53007 4.07042 6.89809 3.67743 6.50909C3.28544 6.1211 2.65145 6.12316 2.26346 6.51715C1.78347 7.00214 1.28047 7.54011 0.748482 8.13509C-0.249494 9.25007 -0.249494 10.748 0.748482 11.863C4.46739 16.0249 6.88734 17.4999 9.99527 17.4999C10.7962 17.4999 11.5362 17.3979 12.2602 17.1889C12.7902 17.0349 13.0962 16.4809 12.9432 15.9499C12.7902 15.4199 12.2362 15.1169 11.7042 15.2679ZM19.2491 11.865C20.25 10.749 20.25 9.25104 19.25 8.13607C15.5311 3.97417 13.1112 2.49924 10.0033 2.49924C8.3313 2.49924 6.86436 2.94519 5.3434 3.92816L2.70742 1.29224C2.31643 0.901251 1.6845 0.901251 1.29351 1.29224C0.902522 1.68323 0.902522 2.31522 1.29351 2.70621L17.2931 18.7058C17.4881 18.9008 17.7441 18.9988 18.0001 18.9988C18.2561 18.9988 18.512 18.9008 18.707 18.7058C19.098 18.3148 19.098 17.6828 18.707 17.2919L16.2701 14.8549C17.1631 14.0899 18.1311 13.117 19.2491 11.865ZM14.8501 13.4359L12.7012 11.287C12.8902 10.89 13.0012 10.455 13.0012 10.001C13.0012 8.34705 11.6552 7.00109 10.0012 7.00109C9.54826 7.00109 9.1133 7.11111 8.7163 7.30211L6.79936 5.38516C7.85433 4.77417 8.85733 4.50115 10.0043 4.50115C12.4512 4.50115 14.4822 5.80212 17.7621 9.47203C18.0861 9.83303 18.0861 10.1691 17.7601 10.533C16.6441 11.779 15.7041 12.7149 14.8501 13.4359Z" fill="#fff"/></svg>