<svg width="380" height="200" viewBox="0 0 380 200" fill="none" xmlns="http://www.w3.org/2000/svg">
<path d="M198.974 110.372C190.594 183.413 173.146 197.277 100.102 188.899C27.0643 180.519 13.2076 163.068 21.578 90.027C29.9586 16.9861 47.4095 3.12936 120.45 11.51C193.491 19.8838 207.355 37.3347 198.974 110.376V110.372Z" fill="url(#paint0_linear_0_63)"/>
<path d="M343.052 56.1151C335.762 56.1151 329.698 59.0298 323.943 67.7807L300.999 102.39L303.071 75.38C303.839 65.2499 297.47 56.1185 286.113 56.1185C275.524 56.1185 269.002 63.2558 268.387 72.2343L264.779 121.577C263.937 134.007 270.303 140.913 280.742 140.913C291.182 140.913 297.164 133.776 301.767 126.87L323.943 93.3371L321.949 121.577C321.107 133.165 327.167 140.913 338.523 140.913C349.037 140.913 355.791 134.697 356.481 125.334L360.163 75.3766C360.853 65.7085 356.097 56.1151 343.052 56.1151V56.1151ZM255.726 117.12C255.726 105.838 247.131 98.5482 235.775 97.0908C246.364 94.8657 255.651 87.8813 255.651 76.5248C255.651 63.9386 245.905 56.8047 228.026 56.8794H191.806C175.079 56.8794 168.862 63.6329 167.558 82.0485L165.408 112.898C163.95 133.616 169.858 140.139 190.271 140.139H224.955C244.906 140.139 255.726 131.928 255.726 117.117V117.12ZM221.5 114.895C221.5 122.032 215.977 125.409 206.767 125.409L197.004 125.331C197.004 125.331 198.536 115.282 199.521 105.227H208.456C216.13 105.227 221.5 108.373 221.5 114.895V114.895ZM221.884 81.1313C221.884 87.2698 216.897 90.9523 208.072 90.9523H200.727C200.727 90.9523 201.461 79.7589 200.982 71.6908H209.067C217.125 71.6908 221.881 75.1456 221.881 81.1279L221.884 81.1313Z" fill="white"/>
<path d="M140.269 56.248C132.904 56.248 127.01 59.1933 121.119 67.8695L98.2059 102.404L100.332 75.5605C100.988 65.4134 94.605 56.248 83.3096 56.248C72.833 56.248 66.2868 63.2868 65.6311 72.2891L62.0302 121.72C61.2115 133.997 67.5947 141.033 77.7418 141.033C87.8889 141.033 94.2721 133.668 99.0212 126.955L121.116 93.4021L119.152 121.717C118.171 133.175 124.391 141.029 135.683 141.029C146.159 141.029 153.032 134.809 153.687 125.481L157.288 75.5605C158.107 65.7395 153.361 56.248 140.265 56.248H140.269Z" fill="url(#paint1_linear_0_63)"/>
<path d="M100.297 75.5845L98.1707 102.428L98.986 126.979C94.2369 133.692 87.8538 141.057 77.7066 141.057C67.5595 141.057 61.1764 134.021 61.9951 121.744L65.596 72.313C66.2516 63.3107 72.7978 56.272 83.2745 56.272C94.5698 56.272 100.953 65.4373 100.297 75.5845Z" fill="url(#paint2_linear_0_63)"/>
<path d="M100.367 74.1614C100.367 64.799 94.3133 56.2417 83.181 56.2417C72.0488 56.2417 65.5909 64.5884 65.5909 73.5907C65.5909 83.2486 72.8369 90.7766 82.984 90.7766C93.1311 90.7766 100.367 83.8159 100.367 74.1614V74.1614Z" fill="white"/>
<defs>
<linearGradient id="paint0_linear_0_63" x1="218.712" y1="300.274" x2="19.5072" y2="2.30324" gradientUnits="userSpaceOnUse">
<stop offset="0.798146" stop-color="#F30745"/>
<stop offset="0.976597" stop-color="#FFBCCE"/>
</linearGradient>
<linearGradient id="paint1_linear_0_63" x1="105.903" y1="98.221" x2="70.4979" y2="93.7272" gradientUnits="userSpaceOnUse">
<stop offset="0.15" stop-color="white"/>
<stop offset="0.62" stop-color="white" stop-opacity="0.6"/>
<stop offset="1" stop-color="white" stop-opacity="0"/>
</linearGradient>
<linearGradient id="paint2_linear_0_63" x1="73.2482" y1="140.415" x2="82.8537" y2="88.0273" gradientUnits="userSpaceOnUse">
<stop offset="0.15" stop-color="white"/>
<stop offset="0.62" stop-color="white" stop-opacity="0.6"/>
<stop offset="1" stop-color="white" stop-opacity="0"/>
</linearGradient>
</defs>
</svg>
