<?xml version="1.0" encoding="utf-8"?>
<!-- Generator: Adobe Illustrator 26.3.1, SVG Export Plug-In . SVG Version: 6.00 Build 0)  -->
<svg version="1.1" id="Слой_1" xmlns="http://www.w3.org/2000/svg" xmlns:xlink="http://www.w3.org/1999/xlink" x="0px" y="0px"
	 width="500px" height="266px" viewBox="0 0 500 266" style="enable-background:new 0 0 500 266;" xml:space="preserve">
<style type="text/css">
	.st0{clip-path:url(#SVGID_00000183247739106176821600000012881562299348710281_);}
	.st1{fill:url(#SVGID_00000116940273003711278130000001512193012536954807_);}
	.st2{fill:#FFFFFF;}
	.st3{fill:url(#SVGID_00000171697295620523082090000002972802372080436905_);}
	.st4{fill:url(#SVGID_00000020360382191579694190000009323189690031764655_);}
	.st5{fill:#FFFFFF;stroke:#F30745;stroke-width:2.0001;stroke-miterlimit:10;}
</style>
<g>
	<g>
		<defs>
			<rect id="SVGID_1_" width="266" height="266"/>
		</defs>
		<clipPath id="SVGID_00000018204268443017588700000005786826689388825015_">
			<use xlink:href="#SVGID_1_"  style="overflow:visible;"/>
		</clipPath>
		<g style="clip-path:url(#SVGID_00000018204268443017588700000005786826689388825015_);">
			
				<radialGradient id="SVGID_00000036228314237542626300000005779955023778101433_" cx="-1.301" cy="745.264" r="4.2941" gradientTransform="matrix(-25.5196 -53.3591 -53.3591 25.5196 39908.4688 -18892.0527)" gradientUnits="userSpaceOnUse">
				<stop  offset="0.68" style="stop-color:#F30745"/>
				<stop  offset="1" style="stop-color:#FFBCCE"/>
			</radialGradient>
			<path style="fill:url(#SVGID_00000036228314237542626300000005779955023778101433_);" d="M262.8,147.9
				C250.5,254.8,225,275.1,118.1,262.8C11.2,250.5-9.1,225,3.2,118.1C15.4,11.2,41-9.1,147.9,3.2C254.8,15.4,275.1,41,262.8,147.9
				L262.8,147.9z"/>
			<path class="st2" d="M95.8,119.1c14,0,25.3-11.3,25.3-25.3s-11.3-25.3-25.3-25.3S70.5,79.8,70.5,93.8S81.8,119.1,95.8,119.1z"/>
			
				<linearGradient id="SVGID_00000124883396121249548700000002379147052554737042_" gradientUnits="userSpaceOnUse" x1="81.7086" y1="456.8848" x2="95.9678" y2="533.563" gradientTransform="matrix(1 0 0 -1 0 649.022)">
				<stop  offset="0.15" style="stop-color:#FFFFFF"/>
				<stop  offset="0.62" style="stop-color:#FFFFFF;stop-opacity:0.6"/>
				<stop  offset="1" style="stop-color:#FFFFFF;stop-opacity:0"/>
			</linearGradient>
			<path style="fill:url(#SVGID_00000124883396121249548700000002379147052554737042_);" d="M88.2,193.1
				c-16.5,0-23.9-11.9-22.7-28.4l5.3-73.4c1-13.9,13-23.9,26.8-22.3c13.8,1.6,24.2,14.2,23.2,28.1l-5.3,73.4
				C114.5,181.8,102.3,193.1,88.2,193.1L88.2,193.1z"/>
			
				<linearGradient id="SVGID_00000008137001429746319610000002927446068270385846_" gradientUnits="userSpaceOnUse" x1="129.3958" y1="518.6147" x2="77.7144" y2="525.1748" gradientTransform="matrix(1 0 0 -1 0 649.022)">
				<stop  offset="0.15" style="stop-color:#FFFFFF"/>
				<stop  offset="0.62" style="stop-color:#FFFFFF;stop-opacity:0.6"/>
				<stop  offset="1" style="stop-color:#FFFFFF;stop-opacity:0"/>
			</linearGradient>
			<path style="fill:url(#SVGID_00000008137001429746319610000002927446068270385846_);" d="M179.7,69.1c-10.5,0-19.5,4.5-27.8,17
				l-33.7,50.6l2.9-39.6c1.1-13.9-7.3-28-24.9-28c-15.5,0-24.4,9.1-25.5,23.1l-5.3,72.4c-1.4,18.6,7.9,28.3,23.2,28.3
				c14.2,0,23.8-10.1,30.6-20.3l32.6-48.9l-2.9,40.8c-1.2,17,7,28.3,24,28.3c15.3,0,25.4-8.7,26.3-22.6l5.3-73.2
				C205.4,83.2,198.4,69.1,179.7,69.1z"/>
		</g>
	</g>
	<g>
		<path class="st5" d="M474.1,69.1c-10.5,0-19.5,4.5-27.9,17l-33.8,50.6l2.9-39.6c1.1-13.9-7.3-28-24.9-28
			c-15.5,0-24.5,9.1-25.6,23.1l-5.3,72.4c-1.4,18.6,7.9,28.3,23.2,28.3c14.2,0,23.9-10.1,30.7-20.3l32.7-48.9l-2.9,40.8
			c-1.2,17,7,28.3,24,28.3c15.3,0,25.4-8.7,26.3-22.6l5.3-73.2C499.8,83.2,492.9,69.1,474.1,69.1L474.1,69.1z"/>
		<path class="st5" d="M348.6,157.4c0-17-13.5-26.9-32.5-28.5c17.5-4.2,29.1-14.1,29.4-29.4c0.3-17.8-12.2-29.2-37.9-29.2h-54.2
			c-24.2,0-33.3,10.1-35.2,36.8l-3.1,44.7c-2,30.2,6.5,39.8,36.4,39.8h51.9C329,191.6,348.6,179.4,348.6,157.4L348.6,157.4z M266,92
			h11.9c11.5,0,19.1,4.3,19.1,12.4h0c0,10.4-7.6,15.5-20.1,15.5h-11C265.8,119.8,266.9,105.3,266,92z M297.4,154.5
			c0,10.1-8.2,15.5-22.2,15.5h-14.8c0,0,2.3-13.4,3.2-29.1h14.2C289.5,140.9,297.4,144.6,297.4,154.5L297.4,154.5z"/>
	</g>
</g>
</svg>
