<svg xmlns="http://www.w3.org/2000/svg" width="20" height="20" viewBox="0 0 20 20" m_init="2261455202504171300"><path d="M11.8571 1.49154C11.633 1.25674 11.3881 1.00025 11.1554 0.824235C10.8843 0.619265 10.4211 0.363486 9.83675 0.523312C9.26243 0.680384 8.99135 1.12122 8.85868 1.44017C8.74792 1.70647 8.66918 2.04548 8.59847 2.34996L8.58546 2.40592C8.40842 3.16617 8.21893 4.13688 8.10616 5.18871C5.79756 5.65943 3.81311 6.99243 2.39167 8.98679C0.604931 11.4937 -0.263145 14.9943 0.104654 19.0849C0.145883 19.5434 0.494848 19.9145 0.949981 19.9839C1.40511 20.0533 1.84879 19.8029 2.02473 19.3775C2.86376 17.3486 3.97021 16.0285 5.26415 15.205C6.10007 14.673 7.04994 14.3256 8.11763 14.1455C8.23481 15.1507 8.42187 16.0542 8.59596 16.7563L8.6091 16.8094C8.67743 17.0858 8.75599 17.4036 8.86598 17.6559C9.00207 17.968 9.26786 18.3724 9.80466 18.5311C10.3531 18.6932 10.8028 18.483 11.0805 18.2968C11.312 18.1416 11.5558 17.9128 11.7731 17.709L19.9937 10.0057L11.8571 1.49154ZM10.0007 12.3379V11.9973C7.86549 11.9973 5.89099 12.4354 4.1903 13.5178C3.43471 13.9987 2.75006 14.596 2.13797 15.3149C2.39636 13.2249 3.07014 11.4808 4.02033 10.1476C5.46125 8.1259 7.56565 6.99988 10.0037 6.99988L10.0045 6.99488C10.0045 5.5456 10.257 4.07195 10.5071 2.97364L17.1524 9.92737L10.5076 16.154C10.2651 15.1491 10.0159 13.7735 10.0007 12.3379Z" fill="#fff"/></svg>