<svg xmlns="http://www.w3.org/2000/svg" width="20" height="20" viewBox="0 0 20 20" m_init="2261455202504171300"><path d="M12 4C12.553 4 13 3.552 13 3V1C13 0.448 12.553 0 12 0C11.447 0 11 0.448 11 1V3C11 3.552 11.447 4 12 4ZM7.756 5.171C7.951 5.366 8.207 5.464 8.463 5.464C8.719 5.464 8.975 5.367 9.17 5.171C9.561 4.78 9.561 4.148 9.17 3.757L7.756 2.343C7.365 1.952 6.733 1.952 6.342 2.343C5.951 2.734 5.951 3.366 6.342 3.757L7.756 5.171ZM16.242 10.828C15.851 10.436 15.219 10.437 14.828 10.827C14.437 11.217 14.437 11.85 14.828 12.241L16.242 13.657C16.437 13.853 16.693 13.95 16.949 13.95C17.205 13.95 17.461 13.852 17.656 13.658C18.047 13.268 18.047 12.635 17.656 12.244L16.242 10.828ZM19 7.001L16.998 7C16.446 7 15.998 7.447 15.998 8C15.998 8.553 16.445 9 16.998 9L19 9.001C19.552 9.001 20 8.554 20 8.001C20 7.448 19.553 7.001 19 7.001ZM15.533 5.464C15.789 5.464 16.045 5.366 16.24 5.172L17.656 3.757C18.047 3.366 18.047 2.733 17.656 2.342C17.265 1.951 16.633 1.952 16.242 2.342L14.826 3.757C14.435 4.148 14.435 4.781 14.826 5.172C15.021 5.366 15.277 5.464 15.533 5.464ZM14.123 5.85C12.99 4.717 11.014 4.717 9.881 5.85L0.876 14.879C-0.292 16.047 -0.292 17.95 0.876 19.122C1.441 19.688 2.195 20 2.997 20C3.8 20 4.554 19.688 5.12 19.12L14.123 10.092C15.292 8.922 15.292 7.019 14.123 5.85ZM3.705 17.707C3.328 18.085 2.666 18.084 2.291 17.709C1.901 17.318 1.901 16.683 2.29 16.293L7.752 10.807L9.166 12.221L3.705 17.707ZM12.709 8.678L10.58 10.807L9.166 9.393L11.295 7.264C11.483 7.075 11.734 6.972 12.002 6.972C12.27 6.972 12.521 7.076 12.709 7.264C13.099 7.653 13.099 8.288 12.709 8.678Z" fill="#fff"/></svg>