<svg width="20" height="20" viewBox="0 0 24 24" fill="none" xmlns="http://www.w3.org/2000/svg">
  <path 
    d="M21.44 11.05L12.25 2.95C11.95 2.66 11.53 2.5 11.1 2.5C10.67 2.5 10.25 2.66 9.95 2.95L0.76 11.05C0.47 11.34 0.31 11.76 0.31 12.19C0.31 12.62 0.47 13.04 0.76 13.33C1.05 13.62 1.47 13.78 1.9 13.78C2.33 13.78 2.75 13.62 3.04 13.33L10.1 7.27L10.1 21C10.1 21.55 10.55 22 11.1 22C11.65 22 12.1 21.55 12.1 21L12.1 7.27L19.16 13.33C19.45 13.62 19.87 13.78 20.3 13.78C20.73 13.78 21.15 13.62 21.44 13.33C21.73 13.04 21.89 12.62 21.89 12.19C21.89 11.76 21.73 11.34 21.44 11.05Z" 
    fill="currentColor"
  />
</svg> 