<svg xmlns="http://www.w3.org/2000/svg" width="32" height="32" viewBox="0 0 32 32" m_init="2261455202504171300"><path d="M16 0C7.178 0 0 7.178 0 16C0 24.822 7.178 32 16 32C24.822 32 32 24.822 32 16C32 7.178 24.822 0 16 0ZM16 30C8.28 30 2 23.72 2 16C2 8.28 8.28 2 16 2C23.72 2 30 8.28 30 16C30 23.72 23.72 30 16 30ZM21 13.999C22.4 13.999 23.718 13.454 24.708 12.463C25.098 12.072 25.098 11.439 24.707 11.049C24.316 10.658 23.683 10.658 23.292 11.049C22.069 12.276 19.931 12.276 18.708 11.049C18.317 10.658 17.684 10.658 17.293 11.049C16.902 11.439 16.902 12.072 17.292 12.463C18.282 13.454 19.6 13.999 21 13.999ZM14.708 12.463C15.098 12.072 15.098 11.439 14.707 11.049C14.316 10.658 13.683 10.658 13.292 11.049C12.069 12.276 9.93101 12.276 8.70801 11.049C8.31701 10.658 7.68403 10.658 7.29303 11.049C6.90203 11.439 6.90199 12.072 7.29199 12.463C8.28199 13.454 9.6 13.999 11 13.999C12.4 13.999 13.718 13.454 14.708 12.463ZM25.631 19.583L24.365 16.87C23.734 15.778 22.304 15.701 21.595 16.947L20.685 18.909C16.599 17.432 13.107 17.78 8.54401 20.109C8.05301 20.36 7.85697 20.963 8.10797 21.455C8.28497 21.801 8.635 22 9 22C9.152 22 9.30898 21.965 9.45398 21.891C13.565 19.792 16.436 19.486 20.027 20.794C20.023 20.863 20 20.931 20 21C20 22.654 21.346 24 23 24C24.654 24 26 22.654 26 21C26 20.485 25.858 19.968 25.631 19.583ZM23 22C22.448 22 22 21.552 22 21C22 20.834 22.048 20.667 22.182 20.427L23 18.665L23.858 20.505C23.952 20.667 24 20.834 24 21C24 21.552 23.552 22 23 22Z" fill="#a5a1b2"/></svg>